<svg xmlns="http://www.w3.org/2000/svg" xmlns:xlink="http://www.w3.org/1999/xlink" version="1.1" class="marks" width="1034" height="647" viewBox="0 0 1034 647"><rect width="1034" height="647" fill="white"/><g fill="none" stroke-miterlimit="10" transform="translate(59,10)"><g class="mark-group role-frame root" role="graphics-object" aria-roledescription="group mark container"><g transform="translate(0,0)"><path class="background" aria-hidden="true" d="M0.5,0.5h800v600h-800Z" stroke="#ddd"/><g><g class="mark-group role-axis" aria-hidden="true"><g transform="translate(0.5,600.5)"><path class="background" aria-hidden="true" d="M0,0h0v0h0Z" pointer-events="none"/><g><g class="mark-rule role-axis-grid" pointer-events="none"><line transform="translate(0,-600)" x2="0" y2="600" stroke="#ddd" stroke-width="1" opacity="1"/><line transform="translate(36,-600)" x2="0" y2="600" stroke="#ddd" stroke-width="1" opacity="1"/><line transform="translate(73,-600)" x2="0" y2="600" stroke="#ddd" stroke-width="1" opacity="1"/><line transform="translate(109,-600)" x2="0" y2="600" stroke="#ddd" stroke-width="1" opacity="1"/><line transform="translate(145,-600)" x2="0" y2="600" stroke="#ddd" stroke-width="1" opacity="1"/><line transform="translate(182,-600)" x2="0" y2="600" stroke="#ddd" stroke-width="1" opacity="1"/><line transform="translate(218,-600)" x2="0" y2="600" stroke="#ddd" stroke-width="1" opacity="1"/><line transform="translate(255,-600)" x2="0" y2="600" stroke="#ddd" stroke-width="1" opacity="1"/><line transform="translate(291,-600)" x2="0" y2="600" stroke="#ddd" stroke-width="1" opacity="1"/><line transform="translate(327,-600)" x2="0" y2="600" stroke="#ddd" stroke-width="1" opacity="1"/><line transform="translate(364,-600)" x2="0" y2="600" stroke="#ddd" stroke-width="1" opacity="1"/><line transform="translate(400,-600)" x2="0" y2="600" stroke="#ddd" stroke-width="1" opacity="1"/><line transform="translate(436,-600)" x2="0" y2="600" stroke="#ddd" stroke-width="1" opacity="1"/><line transform="translate(473,-600)" x2="0" y2="600" stroke="#ddd" stroke-width="1" opacity="1"/><line transform="translate(509,-600)" x2="0" y2="600" stroke="#ddd" stroke-width="1" opacity="1"/><line transform="translate(545,-600)" x2="0" y2="600" stroke="#ddd" stroke-width="1" opacity="1"/><line transform="translate(582,-600)" x2="0" y2="600" stroke="#ddd" stroke-width="1" opacity="1"/><line transform="translate(618,-600)" x2="0" y2="600" stroke="#ddd" stroke-width="1" opacity="1"/><line transform="translate(655,-600)" x2="0" y2="600" stroke="#ddd" stroke-width="1" opacity="1"/><line transform="translate(691,-600)" x2="0" y2="600" stroke="#ddd" stroke-width="1" opacity="1"/><line transform="translate(727,-600)" x2="0" y2="600" stroke="#ddd" stroke-width="1" opacity="1"/><line transform="translate(764,-600)" x2="0" y2="600" stroke="#ddd" stroke-width="1" opacity="1"/><line transform="translate(800,-600)" x2="0" y2="600" stroke="#ddd" stroke-width="1" opacity="1"/></g></g><path class="foreground" aria-hidden="true" d="" pointer-events="none" display="none"/></g></g><g class="mark-group role-axis" role="graphics-symbol" aria-roledescription="axis" aria-label="X-axis titled 'length' for a linear scale with values from 0 to 110,000"><g transform="translate(0.5,600.5)"><path class="background" aria-hidden="true" d="M0,0h0v0h0Z" pointer-events="none"/><g><g class="mark-rule role-axis-tick" pointer-events="none"><line transform="translate(0,0)" x2="0" y2="5" stroke="#888" stroke-width="1" opacity="1"/><line transform="translate(36,0)" x2="0" y2="5" stroke="#888" stroke-width="1" opacity="1"/><line transform="translate(73,0)" x2="0" y2="5" stroke="#888" stroke-width="1" opacity="1"/><line transform="translate(109,0)" x2="0" y2="5" stroke="#888" stroke-width="1" opacity="1"/><line transform="translate(145,0)" x2="0" y2="5" stroke="#888" stroke-width="1" opacity="1"/><line transform="translate(182,0)" x2="0" y2="5" stroke="#888" stroke-width="1" opacity="1"/><line transform="translate(218,0)" x2="0" y2="5" stroke="#888" stroke-width="1" opacity="1"/><line transform="translate(255,0)" x2="0" y2="5" stroke="#888" stroke-width="1" opacity="1"/><line transform="translate(291,0)" x2="0" y2="5" stroke="#888" stroke-width="1" opacity="1"/><line transform="translate(327,0)" x2="0" y2="5" stroke="#888" stroke-width="1" opacity="1"/><line transform="translate(364,0)" x2="0" y2="5" stroke="#888" stroke-width="1" opacity="1"/><line transform="translate(400,0)" x2="0" y2="5" stroke="#888" stroke-width="1" opacity="1"/><line transform="translate(436,0)" x2="0" y2="5" stroke="#888" stroke-width="1" opacity="1"/><line transform="translate(473,0)" x2="0" y2="5" stroke="#888" stroke-width="1" opacity="1"/><line transform="translate(509,0)" x2="0" y2="5" stroke="#888" stroke-width="1" opacity="1"/><line transform="translate(545,0)" x2="0" y2="5" stroke="#888" stroke-width="1" opacity="1"/><line transform="translate(582,0)" x2="0" y2="5" stroke="#888" stroke-width="1" opacity="1"/><line transform="translate(618,0)" x2="0" y2="5" stroke="#888" stroke-width="1" opacity="1"/><line transform="translate(655,0)" x2="0" y2="5" stroke="#888" stroke-width="1" opacity="1"/><line transform="translate(691,0)" x2="0" y2="5" stroke="#888" stroke-width="1" opacity="1"/><line transform="translate(727,0)" x2="0" y2="5" stroke="#888" stroke-width="1" opacity="1"/><line transform="translate(764,0)" x2="0" y2="5" stroke="#888" stroke-width="1" opacity="1"/><line transform="translate(800,0)" x2="0" y2="5" stroke="#888" stroke-width="1" opacity="1"/></g><g class="mark-text role-axis-label" pointer-events="none"><text text-anchor="start" transform="translate(0,15)" font-family="sans-serif" font-size="10px" fill="#000" opacity="1">0</text><text text-anchor="middle" transform="translate(36.36363636363637,15)" font-family="sans-serif" font-size="10px" fill="#000" opacity="0">5,000</text><text text-anchor="middle" transform="translate(72.72727272727273,15)" font-family="sans-serif" font-size="10px" fill="#000" opacity="0">10,000</text><text text-anchor="middle" transform="translate(109.09090909090908,15)" font-family="sans-serif" font-size="10px" fill="#000" opacity="0">15,000</text><text text-anchor="middle" transform="translate(145.45454545454547,15)" font-family="sans-serif" font-size="10px" fill="#000" opacity="1">20,000</text><text text-anchor="middle" transform="translate(181.8181818181818,15)" font-family="sans-serif" font-size="10px" fill="#000" opacity="0">25,000</text><text text-anchor="middle" transform="translate(218.18181818181816,15)" font-family="sans-serif" font-size="10px" fill="#000" opacity="0">30,000</text><text text-anchor="middle" transform="translate(254.54545454545453,15)" font-family="sans-serif" font-size="10px" fill="#000" opacity="0">35,000</text><text text-anchor="middle" transform="translate(290.90909090909093,15)" font-family="sans-serif" font-size="10px" fill="#000" opacity="1">40,000</text><text text-anchor="middle" transform="translate(327.2727272727273,15)" font-family="sans-serif" font-size="10px" fill="#000" opacity="0">45,000</text><text text-anchor="middle" transform="translate(363.6363636363636,15)" font-family="sans-serif" font-size="10px" fill="#000" opacity="0">50,000</text><text text-anchor="middle" transform="translate(400,15)" font-family="sans-serif" font-size="10px" fill="#000" opacity="0">55,000</text><text text-anchor="middle" transform="translate(436.3636363636363,15)" font-family="sans-serif" font-size="10px" fill="#000" opacity="1">60,000</text><text text-anchor="middle" transform="translate(472.72727272727275,15)" font-family="sans-serif" font-size="10px" fill="#000" opacity="0">65,000</text><text text-anchor="middle" transform="translate(509.09090909090907,15)" font-family="sans-serif" font-size="10px" fill="#000" opacity="0">70,000</text><text text-anchor="middle" transform="translate(545.4545454545454,15)" font-family="sans-serif" font-size="10px" fill="#000" opacity="0">75,000</text><text text-anchor="middle" transform="translate(581.8181818181819,15)" font-family="sans-serif" font-size="10px" fill="#000" opacity="1">80,000</text><text text-anchor="middle" transform="translate(618.1818181818181,15)" font-family="sans-serif" font-size="10px" fill="#000" opacity="0">85,000</text><text text-anchor="middle" transform="translate(654.5454545454546,15)" font-family="sans-serif" font-size="10px" fill="#000" opacity="0">90,000</text><text text-anchor="middle" transform="translate(690.9090909090909,15)" font-family="sans-serif" font-size="10px" fill="#000" opacity="0">95,000</text><text text-anchor="middle" transform="translate(727.2727272727273,15)" font-family="sans-serif" font-size="10px" fill="#000" opacity="1">100,000</text><text text-anchor="middle" transform="translate(763.6363636363636,15)" font-family="sans-serif" font-size="10px" fill="#000" opacity="0">105,000</text><text text-anchor="end" transform="translate(800,15)" font-family="sans-serif" font-size="10px" fill="#000" opacity="0">110,000</text></g><g class="mark-rule role-axis-domain" pointer-events="none"><line transform="translate(0,0)" x2="800" y2="0" stroke="#888" stroke-width="1" opacity="1"/></g><g class="mark-text role-axis-title" pointer-events="none"><text text-anchor="middle" transform="translate(400,30)" font-family="sans-serif" font-size="11px" font-weight="bold" fill="#000" opacity="1">length</text></g></g><path class="foreground" aria-hidden="true" d="" pointer-events="none" display="none"/></g></g><g class="mark-group role-axis" role="graphics-symbol" aria-roledescription="axis" aria-label="Y-axis titled 'mean' for a linear scale with values from 0.0 to 0.8"><g transform="translate(0.5,0.5)"><path class="background" aria-hidden="true" d="M0,0h0v0h0Z" pointer-events="none"/><g><g class="mark-rule role-axis-tick" pointer-events="none"><line transform="translate(0,600)" x2="-5" y2="0" stroke="#888" stroke-width="1" opacity="1"/><line transform="translate(0,563)" x2="-5" y2="0" stroke="#888" stroke-width="1" opacity="1"/><line transform="translate(0,525)" x2="-5" y2="0" stroke="#888" stroke-width="1" opacity="1"/><line transform="translate(0,488)" x2="-5" y2="0" stroke="#888" stroke-width="1" opacity="1"/><line transform="translate(0,450)" x2="-5" y2="0" stroke="#888" stroke-width="1" opacity="1"/><line transform="translate(0,413)" x2="-5" y2="0" stroke="#888" stroke-width="1" opacity="1"/><line transform="translate(0,375)" x2="-5" y2="0" stroke="#888" stroke-width="1" opacity="1"/><line transform="translate(0,338)" x2="-5" y2="0" stroke="#888" stroke-width="1" opacity="1"/><line transform="translate(0,300)" x2="-5" y2="0" stroke="#888" stroke-width="1" opacity="1"/><line transform="translate(0,263)" x2="-5" y2="0" stroke="#888" stroke-width="1" opacity="1"/><line transform="translate(0,225)" x2="-5" y2="0" stroke="#888" stroke-width="1" opacity="1"/><line transform="translate(0,188)" x2="-5" y2="0" stroke="#888" stroke-width="1" opacity="1"/><line transform="translate(0,150)" x2="-5" y2="0" stroke="#888" stroke-width="1" opacity="1"/><line transform="translate(0,113)" x2="-5" y2="0" stroke="#888" stroke-width="1" opacity="1"/><line transform="translate(0,75)" x2="-5" y2="0" stroke="#888" stroke-width="1" opacity="1"/><line transform="translate(0,38)" x2="-5" y2="0" stroke="#888" stroke-width="1" opacity="1"/><line transform="translate(0,0)" x2="-5" y2="0" stroke="#888" stroke-width="1" opacity="1"/></g><g class="mark-text role-axis-label" pointer-events="none"><text text-anchor="end" transform="translate(-7,603)" font-family="sans-serif" font-size="10px" fill="#000" opacity="1">0.00</text><text text-anchor="end" transform="translate(-7,565.5)" font-family="sans-serif" font-size="10px" fill="#000" opacity="1">0.05</text><text text-anchor="end" transform="translate(-7,528)" font-family="sans-serif" font-size="10px" fill="#000" opacity="1">0.10</text><text text-anchor="end" transform="translate(-7,490.5)" font-family="sans-serif" font-size="10px" fill="#000" opacity="1">0.15</text><text text-anchor="end" transform="translate(-7,453)" font-family="sans-serif" font-size="10px" fill="#000" opacity="1">0.20</text><text text-anchor="end" transform="translate(-7,415.5)" font-family="sans-serif" font-size="10px" fill="#000" opacity="1">0.25</text><text text-anchor="end" transform="translate(-7,378)" font-family="sans-serif" font-size="10px" fill="#000" opacity="1">0.30</text><text text-anchor="end" transform="translate(-7,340.5)" font-family="sans-serif" font-size="10px" fill="#000" opacity="1">0.35</text><text text-anchor="end" transform="translate(-7,303)" font-family="sans-serif" font-size="10px" fill="#000" opacity="1">0.40</text><text text-anchor="end" transform="translate(-7,265.5)" font-family="sans-serif" font-size="10px" fill="#000" opacity="1">0.45</text><text text-anchor="end" transform="translate(-7,228)" font-family="sans-serif" font-size="10px" fill="#000" opacity="1">0.50</text><text text-anchor="end" transform="translate(-7,190.5)" font-family="sans-serif" font-size="10px" fill="#000" opacity="1">0.55</text><text text-anchor="end" transform="translate(-7,153.00000000000006)" font-family="sans-serif" font-size="10px" fill="#000" opacity="1">0.60</text><text text-anchor="end" transform="translate(-7,115.5)" font-family="sans-serif" font-size="10px" fill="#000" opacity="1">0.65</text><text text-anchor="end" transform="translate(-7,78.00000000000007)" font-family="sans-serif" font-size="10px" fill="#000" opacity="1">0.70</text><text text-anchor="end" transform="translate(-7,40.5)" font-family="sans-serif" font-size="10px" fill="#000" opacity="1">0.75</text><text text-anchor="end" transform="translate(-7,3)" font-family="sans-serif" font-size="10px" fill="#000" opacity="1">0.80</text></g><g class="mark-rule role-axis-domain" pointer-events="none"><line transform="translate(0,600)" x2="0" y2="-600" stroke="#888" stroke-width="1" opacity="1"/></g><g class="mark-text role-axis-title" pointer-events="none"><text text-anchor="middle" transform="translate(-43,300) rotate(-90) translate(0,-2)" font-family="sans-serif" font-size="11px" font-weight="bold" fill="#000" opacity="1">mean</text></g></g><path class="foreground" aria-hidden="true" d="" pointer-events="none" display="none"/></g></g><g class="mark-symbol role-mark marks" role="graphics-object" aria-roledescription="symbol mark container"><path aria-label="mean: 0.000182421766605; length: 10; jdk: jdk-8; engine: charred-mutable" role="graphics-symbol" aria-roledescription="point" transform="translate(0.07272727272727272,599.8631836750463)" d="M0,-2.3717082451262845L-2.7386127875258306,2.3717082451262845L2.7386127875258306,2.3717082451262845Z" stroke="#f58518" stroke-width="2" opacity="0.7"/><path aria-label="mean: 0.000186539663799; length: 10; jdk: jdk-8; engine: charred-hamf" role="graphics-symbol" aria-roledescription="point" transform="translate(0.07272727272727272,599.8600952521505)" d="M2.7386127875258306,0A2.7386127875258306,2.7386127875258306,0,1,1,-2.7386127875258306,0A2.7386127875258306,2.7386127875258306,0,1,1,2.7386127875258306,0" stroke="#f58518" stroke-width="2" opacity="0.7"/><path aria-label="mean: 0.000277691606405; length: 10; jdk: jdk-8; engine: jsonista-mutable" role="graphics-symbol" aria-roledescription="point" transform="translate(0.07272727272727272,599.791731295196)" d="M-2.7386127875258306,-1.0954451150103321L-2.7386127875258306,1.0954451150103321L-1.0954451150103321,1.0954451150103321L-1.0954451150103321,2.7386127875258306L1.0954451150103321,2.7386127875258306L1.0954451150103321,1.0954451150103321L2.7386127875258306,1.0954451150103321L2.7386127875258306,-1.0954451150103321L1.0954451150103321,-1.0954451150103321L1.0954451150103321,-2.7386127875258306L-1.0954451150103321,-2.7386127875258306L-1.0954451150103321,-1.0954451150103321Z" stroke="#f58518" stroke-width="2" opacity="0.7"/><path aria-label="mean: 0.000295356545489; length: 10; jdk: jdk-8; engine: charred-immutable" role="graphics-symbol" aria-roledescription="point" transform="translate(0.07272727272727272,599.7784825908836)" d="M-2.7386127875258306,-2.7386127875258306h5.477225575051661v5.477225575051661h-5.477225575051661Z" stroke="#f58518" stroke-width="2" opacity="0.7"/><path aria-label="mean: 0.000784447447809; length: 100; jdk: jdk-8; engine: charred-hamf" role="graphics-symbol" aria-roledescription="point" transform="translate(0.7272727272727273,599.4116644141433)" d="M2.7386127875258306,0A2.7386127875258306,2.7386127875258306,0,1,1,-2.7386127875258306,0A2.7386127875258306,2.7386127875258306,0,1,1,2.7386127875258306,0" stroke="#f58518" stroke-width="2" opacity="0.7"/><path aria-label="mean: 0.000804493566844; length: 100; jdk: jdk-8; engine: charred-mutable" role="graphics-symbol" aria-roledescription="point" transform="translate(0.7272727272727273,599.3966298248672)" d="M0,-2.3717082451262845L-2.7386127875258306,2.3717082451262845L2.7386127875258306,2.3717082451262845Z" stroke="#f58518" stroke-width="2" opacity="0.7"/><path aria-label="mean: 0.000988113962888; length: 100; jdk: jdk-8; engine: jsonista-mutable" role="graphics-symbol" aria-roledescription="point" transform="translate(0.7272727272727273,599.258914527834)" d="M-2.7386127875258306,-1.0954451150103321L-2.7386127875258306,1.0954451150103321L-1.0954451150103321,1.0954451150103321L-1.0954451150103321,2.7386127875258306L1.0954451150103321,2.7386127875258306L1.0954451150103321,1.0954451150103321L2.7386127875258306,1.0954451150103321L2.7386127875258306,-1.0954451150103321L1.0954451150103321,-1.0954451150103321L1.0954451150103321,-2.7386127875258306L-1.0954451150103321,-2.7386127875258306L-1.0954451150103321,-1.0954451150103321Z" stroke="#f58518" stroke-width="2" opacity="0.7"/><path aria-label="mean: 0.00137056385113; length: 100; jdk: jdk-8; engine: charred-immutable" role="graphics-symbol" aria-roledescription="point" transform="translate(0.7272727272727273,598.9720771116489)" d="M-2.7386127875258306,-2.7386127875258306h5.477225575051661v5.477225575051661h-5.477225575051661Z" stroke="#f58518" stroke-width="2" opacity="0.7"/><path aria-label="mean: 0.00365197988909; length: 907; jdk: jdk-8; engine: charred-mutable" role="graphics-symbol" aria-roledescription="point" transform="translate(6.596363636363637,597.2610150831812)" d="M0,-2.3717082451262845L-2.7386127875258306,2.3717082451262845L2.7386127875258306,2.3717082451262845Z" stroke="#f58518" stroke-width="2" opacity="0.7"/><path aria-label="mean: 0.00407109301967; length: 907; jdk: jdk-8; engine: charred-hamf" role="graphics-symbol" aria-roledescription="point" transform="translate(6.596363636363637,596.9466802352443)" d="M2.7386127875258306,0A2.7386127875258306,2.7386127875258306,0,1,1,-2.7386127875258306,0A2.7386127875258306,2.7386127875258306,0,1,1,2.7386127875258306,0" stroke="#f58518" stroke-width="2" opacity="0.7"/><path aria-label="mean: 0.00430170895638; length: 907; jdk: jdk-8; engine: jsonista-mutable" role="graphics-symbol" aria-roledescription="point" transform="translate(6.596363636363637,596.7737182827152)" d="M-2.7386127875258306,-1.0954451150103321L-2.7386127875258306,1.0954451150103321L-1.0954451150103321,1.0954451150103321L-1.0954451150103321,2.7386127875258306L1.0954451150103321,2.7386127875258306L1.0954451150103321,1.0954451150103321L2.7386127875258306,1.0954451150103321L2.7386127875258306,-1.0954451150103321L1.0954451150103321,-1.0954451150103321L1.0954451150103321,-2.7386127875258306L-1.0954451150103321,-2.7386127875258306L-1.0954451150103321,-1.0954451150103321Z" stroke="#f58518" stroke-width="2" opacity="0.7"/><path aria-label="mean: 0.00678727009549; length: 907; jdk: jdk-8; engine: charred-immutable" role="graphics-symbol" aria-roledescription="point" transform="translate(6.596363636363637,594.9095474283854)" d="M-2.7386127875258306,-2.7386127875258306h5.477225575051661v5.477225575051661h-5.477225575051661Z" stroke="#f58518" stroke-width="2" opacity="0.7"/><path aria-label="mean: 0.0455137826506; length: 10659; jdk: jdk-8; engine: charred-mutable" role="graphics-symbol" aria-roledescription="point" transform="translate(77.52,565.8646630120213)" d="M0,-2.3717082451262845L-2.7386127875258306,2.3717082451262845L2.7386127875258306,2.3717082451262845Z" stroke="#f58518" stroke-width="2" opacity="0.7"/><path aria-label="mean: 0.0463219435109; length: 10659; jdk: jdk-8; engine: charred-hamf" role="graphics-symbol" aria-roledescription="point" transform="translate(77.52,565.2585423668033)" d="M2.7386127875258306,0A2.7386127875258306,2.7386127875258306,0,1,1,-2.7386127875258306,0A2.7386127875258306,2.7386127875258306,0,1,1,2.7386127875258306,0" stroke="#f58518" stroke-width="2" opacity="0.7"/><path aria-label="mean: 0.0515675245074; length: 10659; jdk: jdk-8; engine: jsonista-mutable" role="graphics-symbol" aria-roledescription="point" transform="translate(77.52,561.3243566194734)" d="M-2.7386127875258306,-1.0954451150103321L-2.7386127875258306,1.0954451150103321L-1.0954451150103321,1.0954451150103321L-1.0954451150103321,2.7386127875258306L1.0954451150103321,2.7386127875258306L1.0954451150103321,1.0954451150103321L2.7386127875258306,1.0954451150103321L2.7386127875258306,-1.0954451150103321L1.0954451150103321,-1.0954451150103321L1.0954451150103321,-2.7386127875258306L-1.0954451150103321,-2.7386127875258306L-1.0954451150103321,-1.0954451150103321Z" stroke="#f58518" stroke-width="2" opacity="0.7"/><path aria-label="mean: 0.07926380237; length: 10659; jdk: jdk-8; engine: charred-immutable" role="graphics-symbol" aria-roledescription="point" transform="translate(77.52,540.5521482224771)" d="M-2.7386127875258306,-2.7386127875258306h5.477225575051661v5.477225575051661h-5.477225575051661Z" stroke="#f58518" stroke-width="2" opacity="0.7"/><path aria-label="mean: 0.184654450467; length: 29055; jdk: jdk-8; engine: charred-hamf" role="graphics-symbol" aria-roledescription="point" transform="translate(211.30909090909088,461.5091621495327)" d="M2.7386127875258306,0A2.7386127875258306,2.7386127875258306,0,1,1,-2.7386127875258306,0A2.7386127875258306,2.7386127875258306,0,1,1,2.7386127875258306,0" stroke="#f58518" stroke-width="2" opacity="0.7"/><path aria-label="mean: 0.228820465793; length: 29055; jdk: jdk-8; engine: charred-mutable" role="graphics-symbol" aria-roledescription="point" transform="translate(211.30909090909088,428.38465065502186)" d="M0,-2.3717082451262845L-2.7386127875258306,2.3717082451262845L2.7386127875258306,2.3717082451262845Z" stroke="#f58518" stroke-width="2" opacity="0.7"/><path aria-label="mean: 0.245210847484; length: 29055; jdk: jdk-8; engine: jsonista-mutable" role="graphics-symbol" aria-roledescription="point" transform="translate(211.30909090909088,416.0918643867925)" d="M-2.7386127875258306,-1.0954451150103321L-2.7386127875258306,1.0954451150103321L-1.0954451150103321,1.0954451150103321L-1.0954451150103321,2.7386127875258306L1.0954451150103321,2.7386127875258306L1.0954451150103321,1.0954451150103321L2.7386127875258306,1.0954451150103321L2.7386127875258306,-1.0954451150103321L1.0954451150103321,-1.0954451150103321L1.0954451150103321,-2.7386127875258306L-1.0954451150103321,-2.7386127875258306L-1.0954451150103321,-1.0954451150103321Z" stroke="#f58518" stroke-width="2" opacity="0.7"/><path aria-label="mean: 0.253360626984; length: 29055; jdk: jdk-8; engine: charred-immutable" role="graphics-symbol" aria-roledescription="point" transform="translate(211.30909090909088,409.97952976190476)" d="M-2.7386127875258306,-2.7386127875258306h5.477225575051661v5.477225575051661h-5.477225575051661Z" stroke="#f58518" stroke-width="2" opacity="0.7"/><path aria-label="mean: 0.454688742029; length: 101543; jdk: jdk-8; engine: charred-mutable" role="graphics-symbol" aria-roledescription="point" transform="translate(738.4945454545455,258.9834434782609)" d="M0,-2.3717082451262845L-2.7386127875258306,2.3717082451262845L2.7386127875258306,2.3717082451262845Z" stroke="#f58518" stroke-width="2" opacity="0.7"/><path aria-label="mean: 0.465137908072; length: 101543; jdk: jdk-8; engine: charred-hamf" role="graphics-symbol" aria-roledescription="point" transform="translate(738.4945454545455,251.14656894618838)" d="M2.7386127875258306,0A2.7386127875258306,2.7386127875258306,0,1,1,-2.7386127875258306,0A2.7386127875258306,2.7386127875258306,0,1,1,2.7386127875258306,0" stroke="#f58518" stroke-width="2" opacity="0.7"/><path aria-label="mean: 0.473336304476; length: 101543; jdk: jdk-8; engine: jsonista-mutable" role="graphics-symbol" aria-roledescription="point" transform="translate(738.4945454545455,244.9977716431096)" d="M-2.7386127875258306,-1.0954451150103321L-2.7386127875258306,1.0954451150103321L-1.0954451150103321,1.0954451150103321L-1.0954451150103321,2.7386127875258306L1.0954451150103321,2.7386127875258306L1.0954451150103321,1.0954451150103321L2.7386127875258306,1.0954451150103321L2.7386127875258306,-1.0954451150103321L1.0954451150103321,-1.0954451150103321L1.0954451150103321,-2.7386127875258306L-1.0954451150103321,-2.7386127875258306L-1.0954451150103321,-1.0954451150103321Z" stroke="#f58518" stroke-width="2" opacity="0.7"/><path aria-label="mean: 0.777909971605; length: 101543; jdk: jdk-8; engine: charred-immutable" role="graphics-symbol" aria-roledescription="point" transform="translate(738.4945454545455,16.56752129629615)" d="M-2.7386127875258306,-2.7386127875258306h5.477225575051661v5.477225575051661h-5.477225575051661Z" stroke="#f58518" stroke-width="2" opacity="0.7"/><path aria-label="mean: 0.000178683270201; length: 10; jdk: jdk-19; engine: charred-hamf" role="graphics-symbol" aria-roledescription="point" transform="translate(0.07272727272727272,599.8659875473496)" d="M2.7386127875258306,0A2.7386127875258306,2.7386127875258306,0,1,1,-2.7386127875258306,0A2.7386127875258306,2.7386127875258306,0,1,1,2.7386127875258306,0" stroke="#4c78a8" stroke-width="2" opacity="0.7"/><path aria-label="mean: 0.00018170741765; length: 10; jdk: jdk-19; engine: charred-mutable" role="graphics-symbol" aria-roledescription="point" transform="translate(0.07272727272727272,599.8637194367625)" d="M0,-2.3717082451262845L-2.7386127875258306,2.3717082451262845L2.7386127875258306,2.3717082451262845Z" stroke="#4c78a8" stroke-width="2" opacity="0.7"/><path aria-label="mean: 0.000209936456597; length: 10; jdk: jdk-19; engine: jsonista-mutable" role="graphics-symbol" aria-roledescription="point" transform="translate(0.07272727272727272,599.8425476575525)" d="M-2.7386127875258306,-1.0954451150103321L-2.7386127875258306,1.0954451150103321L-1.0954451150103321,1.0954451150103321L-1.0954451150103321,2.7386127875258306L1.0954451150103321,2.7386127875258306L1.0954451150103321,1.0954451150103321L2.7386127875258306,1.0954451150103321L2.7386127875258306,-1.0954451150103321L1.0954451150103321,-1.0954451150103321L1.0954451150103321,-2.7386127875258306L-1.0954451150103321,-2.7386127875258306L-1.0954451150103321,-1.0954451150103321Z" stroke="#4c78a8" stroke-width="2" opacity="0.7"/><path aria-label="mean: 0.000265693187898; length: 10; jdk: jdk-19; engine: charred-immutable" role="graphics-symbol" aria-roledescription="point" transform="translate(0.07272727272727272,599.8007301090763)" d="M-2.7386127875258306,-2.7386127875258306h5.477225575051661v5.477225575051661h-5.477225575051661Z" stroke="#4c78a8" stroke-width="2" opacity="0.7"/><path aria-label="mean: 0.000764951488999; length: 100; jdk: jdk-19; engine: charred-mutable" role="graphics-symbol" aria-roledescription="point" transform="translate(0.7272727272727273,599.4262863832504)" d="M0,-2.3717082451262845L-2.7386127875258306,2.3717082451262845L2.7386127875258306,2.3717082451262845Z" stroke="#4c78a8" stroke-width="2" opacity="0.7"/><path aria-label="mean: 0.00077706950492; length: 100; jdk: jdk-19; engine: charred-hamf" role="graphics-symbol" aria-roledescription="point" transform="translate(0.7272727272727273,599.4171978713102)" d="M2.7386127875258306,0A2.7386127875258306,2.7386127875258306,0,1,1,-2.7386127875258306,0A2.7386127875258306,2.7386127875258306,0,1,1,2.7386127875258306,0" stroke="#4c78a8" stroke-width="2" opacity="0.7"/><path aria-label="mean: 0.00091300917184; length: 100; jdk: jdk-19; engine: jsonista-mutable" role="graphics-symbol" aria-roledescription="point" transform="translate(0.7272727272727273,599.31524312112)" d="M-2.7386127875258306,-1.0954451150103321L-2.7386127875258306,1.0954451150103321L-1.0954451150103321,1.0954451150103321L-1.0954451150103321,2.7386127875258306L1.0954451150103321,2.7386127875258306L1.0954451150103321,1.0954451150103321L2.7386127875258306,1.0954451150103321L2.7386127875258306,-1.0954451150103321L1.0954451150103321,-1.0954451150103321L1.0954451150103321,-2.7386127875258306L-1.0954451150103321,-2.7386127875258306L-1.0954451150103321,-1.0954451150103321Z" stroke="#4c78a8" stroke-width="2" opacity="0.7"/><path aria-label="mean: 0.00123857719875; length: 100; jdk: jdk-19; engine: charred-immutable" role="graphics-symbol" aria-roledescription="point" transform="translate(0.7272727272727273,599.0710671009375)" d="M-2.7386127875258306,-2.7386127875258306h5.477225575051661v5.477225575051661h-5.477225575051661Z" stroke="#4c78a8" stroke-width="2" opacity="0.7"/><path aria-label="mean: 0.00365623400537; length: 907; jdk: jdk-19; engine: charred-mutable" role="graphics-symbol" aria-roledescription="point" transform="translate(6.596363636363637,597.2578244959715)" d="M0,-2.3717082451262845L-2.7386127875258306,2.3717082451262845L2.7386127875258306,2.3717082451262845Z" stroke="#4c78a8" stroke-width="2" opacity="0.7"/><path aria-label="mean: 0.0037830201163; length: 907; jdk: jdk-19; engine: charred-hamf" role="graphics-symbol" aria-roledescription="point" transform="translate(6.596363636363637,597.1627349127727)" d="M2.7386127875258306,0A2.7386127875258306,2.7386127875258306,0,1,1,-2.7386127875258306,0A2.7386127875258306,2.7386127875258306,0,1,1,2.7386127875258306,0" stroke="#4c78a8" stroke-width="2" opacity="0.7"/><path aria-label="mean: 0.00426042069177; length: 907; jdk: jdk-19; engine: jsonista-mutable" role="graphics-symbol" aria-roledescription="point" transform="translate(6.596363636363637,596.8046844811745)" d="M-2.7386127875258306,-1.0954451150103321L-2.7386127875258306,1.0954451150103321L-1.0954451150103321,1.0954451150103321L-1.0954451150103321,2.7386127875258306L1.0954451150103321,2.7386127875258306L1.0954451150103321,1.0954451150103321L2.7386127875258306,1.0954451150103321L2.7386127875258306,-1.0954451150103321L1.0954451150103321,-1.0954451150103321L1.0954451150103321,-2.7386127875258306L-1.0954451150103321,-2.7386127875258306L-1.0954451150103321,-1.0954451150103321Z" stroke="#4c78a8" stroke-width="2" opacity="0.7"/><path aria-label="mean: 0.00637222659631; length: 907; jdk: jdk-19; engine: charred-immutable" role="graphics-symbol" aria-roledescription="point" transform="translate(6.596363636363637,595.2208300527662)" d="M-2.7386127875258306,-2.7386127875258306h5.477225575051661v5.477225575051661h-5.477225575051661Z" stroke="#4c78a8" stroke-width="2" opacity="0.7"/><path aria-label="mean: 0.0375047341401; length: 10659; jdk: jdk-19; engine: jsonista-mutable" role="graphics-symbol" aria-roledescription="point" transform="translate(77.52,571.8714493949395)" d="M-2.7386127875258306,-1.0954451150103321L-2.7386127875258306,1.0954451150103321L-1.0954451150103321,1.0954451150103321L-1.0954451150103321,2.7386127875258306L1.0954451150103321,2.7386127875258306L1.0954451150103321,1.0954451150103321L2.7386127875258306,1.0954451150103321L2.7386127875258306,-1.0954451150103321L1.0954451150103321,-1.0954451150103321L1.0954451150103321,-2.7386127875258306L-1.0954451150103321,-2.7386127875258306L-1.0954451150103321,-1.0954451150103321Z" stroke="#4c78a8" stroke-width="2" opacity="0.7"/><path aria-label="mean: 0.0391877179355; length: 10659; jdk: jdk-19; engine: charred-hamf" role="graphics-symbol" aria-roledescription="point" transform="translate(77.52,570.6092115483982)" d="M2.7386127875258306,0A2.7386127875258306,2.7386127875258306,0,1,1,-2.7386127875258306,0A2.7386127875258306,2.7386127875258306,0,1,1,2.7386127875258306,0" stroke="#4c78a8" stroke-width="2" opacity="0.7"/><path aria-label="mean: 0.0408271116614; length: 10659; jdk: jdk-19; engine: charred-mutable" role="graphics-symbol" aria-roledescription="point" transform="translate(77.52,569.379666253962)" d="M0,-2.3717082451262845L-2.7386127875258306,2.3717082451262845L2.7386127875258306,2.3717082451262845Z" stroke="#4c78a8" stroke-width="2" opacity="0.7"/><path aria-label="mean: 0.0714250203022; length: 10659; jdk: jdk-19; engine: charred-immutable" role="graphics-symbol" aria-roledescription="point" transform="translate(77.52,546.4312347733711)" d="M-2.7386127875258306,-2.7386127875258306h5.477225575051661v5.477225575051661h-5.477225575051661Z" stroke="#4c78a8" stroke-width="2" opacity="0.7"/><path aria-label="mean: 0.210522535141; length: 29055; jdk: jdk-19; engine: charred-mutable" role="graphics-symbol" aria-roledescription="point" transform="translate(211.30909090909088,442.1080986445784)" d="M0,-2.3717082451262845L-2.7386127875258306,2.3717082451262845L2.7386127875258306,2.3717082451262845Z" stroke="#4c78a8" stroke-width="2" opacity="0.7"/><path aria-label="mean: 0.215111422269; length: 29055; jdk: jdk-19; engine: charred-hamf" role="graphics-symbol" aria-roledescription="point" transform="translate(211.30909090909088,438.6664332983193)" d="M2.7386127875258306,0A2.7386127875258306,2.7386127875258306,0,1,1,-2.7386127875258306,0A2.7386127875258306,2.7386127875258306,0,1,1,2.7386127875258306,0" stroke="#4c78a8" stroke-width="2" opacity="0.7"/><path aria-label="mean: 0.232227046591; length: 29055; jdk: jdk-19; engine: jsonista-mutable" role="graphics-symbol" aria-roledescription="point" transform="translate(211.30909090909088,425.8297150568182)" d="M-2.7386127875258306,-1.0954451150103321L-2.7386127875258306,1.0954451150103321L-1.0954451150103321,1.0954451150103321L-1.0954451150103321,2.7386127875258306L1.0954451150103321,2.7386127875258306L1.0954451150103321,1.0954451150103321L2.7386127875258306,1.0954451150103321L2.7386127875258306,-1.0954451150103321L1.0954451150103321,-1.0954451150103321L1.0954451150103321,-2.7386127875258306L-1.0954451150103321,-2.7386127875258306L-1.0954451150103321,-1.0954451150103321Z" stroke="#4c78a8" stroke-width="2" opacity="0.7"/><path aria-label="mean: 0.306970318363; length: 29055; jdk: jdk-19; engine: charred-immutable" role="graphics-symbol" aria-roledescription="point" transform="translate(211.30909090909088,369.7722612275449)" d="M-2.7386127875258306,-2.7386127875258306h5.477225575051661v5.477225575051661h-5.477225575051661Z" stroke="#4c78a8" stroke-width="2" opacity="0.7"/><path aria-label="mean: 0.360649578671; length: 101543; jdk: jdk-19; engine: jsonista-mutable" role="graphics-symbol" aria-roledescription="point" transform="translate(738.4945454545455,329.51281599650343)" d="M-2.7386127875258306,-1.0954451150103321L-2.7386127875258306,1.0954451150103321L-1.0954451150103321,1.0954451150103321L-1.0954451150103321,2.7386127875258306L1.0954451150103321,2.7386127875258306L1.0954451150103321,1.0954451150103321L2.7386127875258306,1.0954451150103321L2.7386127875258306,-1.0954451150103321L1.0954451150103321,-1.0954451150103321L1.0954451150103321,-2.7386127875258306L-1.0954451150103321,-2.7386127875258306L-1.0954451150103321,-1.0954451150103321Z" stroke="#4c78a8" stroke-width="2" opacity="0.7"/><path aria-label="mean: 0.396862601449; length: 101543; jdk: jdk-19; engine: charred-mutable" role="graphics-symbol" aria-roledescription="point" transform="translate(738.4945454545455,302.35304891304344)" d="M0,-2.3717082451262845L-2.7386127875258306,2.3717082451262845L2.7386127875258306,2.3717082451262845Z" stroke="#4c78a8" stroke-width="2" opacity="0.7"/><path aria-label="mean: 0.414766498634; length: 101543; jdk: jdk-19; engine: charred-hamf" role="graphics-symbol" aria-roledescription="point" transform="translate(738.4945454545455,288.9251260245901)" d="M2.7386127875258306,0A2.7386127875258306,2.7386127875258306,0,1,1,-2.7386127875258306,0A2.7386127875258306,2.7386127875258306,0,1,1,2.7386127875258306,0" stroke="#4c78a8" stroke-width="2" opacity="0.7"/><path aria-label="mean: 0.69378471509; length: 101543; jdk: jdk-19; engine: charred-immutable" role="graphics-symbol" aria-roledescription="point" transform="translate(738.4945454545455,79.66146368243247)" d="M-2.7386127875258306,-2.7386127875258306h5.477225575051661v5.477225575051661h-5.477225575051661Z" stroke="#4c78a8" stroke-width="2" opacity="0.7"/></g><g class="mark-group role-legend" role="graphics-symbol" aria-roledescription="legend" aria-label="Symbol legend titled 'jdk' for stroke color with 2 values: jdk-19, jdk-8"><g transform="translate(818,0)"><path class="background" aria-hidden="true" d="M0,0h64v45h-64Z" pointer-events="none"/><g><g class="mark-group role-legend-entry"><g transform="translate(0,16)"><path class="background" aria-hidden="true" d="M0,0h0v0h0Z" pointer-events="none"/><g><g class="mark-group role-scope" role="graphics-object" aria-roledescription="group mark container"><g transform="translate(0,0)"><path class="background" aria-hidden="true" d="M0,0h64v12.5h-64Z" pointer-events="none" opacity="1"/><g><g class="mark-symbol role-legend-symbol" pointer-events="none"><path transform="translate(6,6)" d="M5,0A5,5,0,1,1,-5,0A5,5,0,1,1,5,0" stroke="#4c78a8" stroke-width="1.5" opacity="0.7"/></g><g class="mark-text role-legend-label" pointer-events="none"><text text-anchor="start" transform="translate(16,9)" font-family="sans-serif" font-size="10px" fill="#000" opacity="1">jdk-19</text></g></g><path class="foreground" aria-hidden="true" d="" pointer-events="none" display="none"/></g><g transform="translate(0,16)"><path class="background" aria-hidden="true" d="M0,0h64v12.5h-64Z" pointer-events="none" opacity="1"/><g><g class="mark-symbol role-legend-symbol" pointer-events="none"><path transform="translate(6,6)" d="M5,0A5,5,0,1,1,-5,0A5,5,0,1,1,5,0" stroke="#f58518" stroke-width="1.5" opacity="0.7"/></g><g class="mark-text role-legend-label" pointer-events="none"><text text-anchor="start" transform="translate(16,9)" font-family="sans-serif" font-size="10px" fill="#000" opacity="1">jdk-8</text></g></g><path class="foreground" aria-hidden="true" d="" pointer-events="none" display="none"/></g></g></g><path class="foreground" aria-hidden="true" d="" pointer-events="none" display="none"/></g></g><g class="mark-text role-legend-title" pointer-events="none"><text text-anchor="start" transform="translate(0,9)" font-family="sans-serif" font-size="11px" font-weight="bold" fill="#000" opacity="1">jdk</text></g></g><path class="foreground" aria-hidden="true" d="" pointer-events="none" display="none"/></g></g><g class="mark-group role-legend" role="graphics-symbol" aria-roledescription="legend" aria-label="Symbol legend titled 'engine' for shape with 4 values: charred-hamf, charred-immutable, charred-mutable, jsonista-mutable"><g transform="translate(818,53)"><path class="background" aria-hidden="true" d="M0,0h152v75h-152Z" pointer-events="none"/><g><g class="mark-group role-legend-entry"><g transform="translate(0,16)"><path class="background" aria-hidden="true" d="M0,0h0v0h0Z" pointer-events="none"/><g><g class="mark-group role-scope" role="graphics-object" aria-roledescription="group mark container"><g transform="translate(0,0)"><path class="background" aria-hidden="true" d="M0,0h152v12.5h-152Z" pointer-events="none" opacity="1"/><g><g class="mark-symbol role-legend-symbol" pointer-events="none"><path transform="translate(6,6)" d="M5,0A5,5,0,1,1,-5,0A5,5,0,1,1,5,0" stroke="#888" stroke-width="1.5" opacity="0.7"/></g><g class="mark-text role-legend-label" pointer-events="none"><text text-anchor="start" transform="translate(16,9)" font-family="sans-serif" font-size="10px" fill="#000" opacity="1">charred-hamf</text></g></g><path class="foreground" aria-hidden="true" d="" pointer-events="none" display="none"/></g><g transform="translate(0,16)"><path class="background" aria-hidden="true" d="M0,0h152v12.5h-152Z" pointer-events="none" opacity="1"/><g><g class="mark-symbol role-legend-symbol" pointer-events="none"><path transform="translate(6,6)" d="M-5,-5h10v10h-10Z" stroke="#888" stroke-width="1.5" opacity="0.7"/></g><g class="mark-text role-legend-label" pointer-events="none"><text text-anchor="start" transform="translate(16,9)" font-family="sans-serif" font-size="10px" fill="#000" opacity="1">charred-immutable</text></g></g><path class="foreground" aria-hidden="true" d="" pointer-events="none" display="none"/></g><g transform="translate(0,31)"><path class="background" aria-hidden="true" d="M0,0h152v11.830127018922191h-152Z" pointer-events="none" opacity="1"/><g><g class="mark-symbol role-legend-symbol" pointer-events="none"><path transform="translate(6,6)" d="M0,-4.330127018922193L-5,4.330127018922193L5,4.330127018922193Z" stroke="#888" stroke-width="1.5" opacity="0.7"/></g><g class="mark-text role-legend-label" pointer-events="none"><text text-anchor="start" transform="translate(16,9)" font-family="sans-serif" font-size="10px" fill="#000" opacity="1">charred-mutable</text></g></g><path class="foreground" aria-hidden="true" d="" pointer-events="none" display="none"/></g><g transform="translate(0,46)"><path class="background" aria-hidden="true" d="M0,0h152v12.5h-152Z" pointer-events="none" opacity="1"/><g><g class="mark-symbol role-legend-symbol" pointer-events="none"><path transform="translate(6,6)" d="M-5,-2L-5,2L-2,2L-2,5L2,5L2,2L5,2L5,-2L2,-2L2,-5L-2,-5L-2,-2Z" stroke="#888" stroke-width="1.5" opacity="0.7"/></g><g class="mark-text role-legend-label" pointer-events="none"><text text-anchor="start" transform="translate(16,9)" font-family="sans-serif" font-size="10px" fill="#000" opacity="1">jsonista-mutable</text></g></g><path class="foreground" aria-hidden="true" d="" pointer-events="none" display="none"/></g></g></g><path class="foreground" aria-hidden="true" d="" pointer-events="none" display="none"/></g></g><g class="mark-text role-legend-title" pointer-events="none"><text text-anchor="start" transform="translate(0,9)" font-family="sans-serif" font-size="11px" font-weight="bold" fill="#000" opacity="1">engine</text></g></g><path class="foreground" aria-hidden="true" d="" pointer-events="none" display="none"/></g></g></g><path class="foreground" aria-hidden="true" d="" display="none"/></g></g></g></svg>